<svg xmlns="http://www.w3.org/2000/svg" viewBox="0 0 456 456">
  <path fill="#5C2D91" d="M81.7 353.7c-11.4 0-20.6-9.2-20.6-20.6V122.9c0-11.4 9.2-20.6 20.6-20.6h68.5c37.6 0 68.1 30.5 68.1 68.1 0 18.9-7.7 36-20.2 48.4 12.5 12.4 20.2 29.5 20.2 48.4 0 37.6-30.5 68.1-68.1 68.1H81.7v18.4h-.1zm68.5-210.2H102.3v76.4h47.9c22.1 0 40.1-18 40.1-40.1s-18-36.3-40.1-36.3zm0 97h-47.9v76.4h47.9c22.1 0 40.1-18 40.1-40.1s-18-36.3-40.1-36.3z"/>
  <path fill="#5C2D91" d="M438.6 274.9c0 26.5-21.5 48-48 48h-13.3v30.8c0 11.4-9.2 20.6-20.6 20.6-11.4 0-20.6-9.2-20.6-20.6V122.9c0-11.4 9.2-20.6 20.6-20.6h33.9c26.5 0 48 21.5 48 48v124.6zm-41.2 6.8V144.1h-20.1v178.8h20.1v-41.2z"/>
  <path fill="#5C2D91" d="M228.6 102.3c68.4 0 123.8 55.4 123.8 123.8S297 349.9 228.6 349.9s-123.8-55.4-123.8-123.8 55.4-123.8 123.8-123.8m0-41.2c-91 0-165 74-165 165s74 165 165 165 165-74 165-165-74-165-165-165z"/>
</svg>
