<svg xmlns="http://www.w3.org/2000/svg" viewBox="0 0 256 256">
  <path fill="#CC2927" d="M220.493 0H35.507A35.508 35.508 0 0 0 0 35.507v184.986A35.508 35.508 0 0 0 35.507 256h184.986A35.508 35.508 0 0 0 256 220.493V35.507A35.508 35.508 0 0 0 220.493 0Z"/>
  <path fill="#FFF" d="M71.984 104.187c-9.92 0-16.704 4.48-18.08 11.936h34.72c-.48-7.456-7.2-11.936-16.64-11.936Zm19.616 24.48H51.168c1.056 8.8 8.416 13.664 18.816 13.664 6.752 0 13.024-1.952 18.08-5.44l7.712 11.36c-6.816 5.056-16.128 7.872-27.168 7.872-21.088 0-34.976-12-34.976-30.112 0-17.568 13.888-30.112 33.44-30.112 18.88 0 31.968 11.744 31.968 29.216 0 1.408-.16 2.752-.48 3.552Zm28.064-37.44c0 5.12-3.968 9.184-9.088 9.184-5.056 0-9.088-4.064-9.088-9.184 0-5.056 4.032-9.12 9.088-9.12 5.12 0 9.088 4.064 9.088 9.12Zm-1.44 63.648h-15.296V97.163h15.296v57.712Zm25.76-57.152v57.152h-15.296V97.723h15.296Zm19.744 43.872c0-8.448 6.368-13.536 18.24-14.208l15.264-.832v-1.696c0-5.696-3.584-8.8-10.88-8.8-5.92 0-10.432 2.4-13.248 6.88l-10.048-8.768c4.672-7.488 13.376-11.584 24.768-11.584 15.68 0 24.672 7.488 24.672 20.8v31.712h-14.88v-6.816h-.352c-3.648 5.12-9.888 8-17.472 8-11.2 0-16.064-6.752-16.064-14.688Zm33.472-3.104v-4l-13.024.768c-5.632.352-8.512 2.464-8.512 6.08 0 3.712 3.136 6.112 8.288 6.112 7.296 0 13.248-4.288 13.248-8.96Z"/>
</svg>
